<svg width="30" height="30" viewBox="0 0 30 30" fill="none" xmlns="http://www.w3.org/2000/svg">
<path d="M15.3429 5.65723C12.9363 5.65723 10.9854 7.59219 10.9854 9.97911C10.9854 12.366 12.9363 14.301 15.3429 14.301C17.7494 14.301 19.7003 12.366 19.7003 9.97911C19.7003 7.59219 17.7494 5.65723 15.3429 5.65723Z" fill="#19232E"/>
<path d="M17.9143 16.2237C16.2108 15.9541 14.4749 15.9541 12.7713 16.2237L12.5888 16.2526C10.1884 16.6325 8.42218 18.6861 8.42218 21.097C8.42218 22.3983 9.48575 23.4531 10.7977 23.4531H19.888C21.1999 23.4531 22.2635 22.3983 22.2635 21.097C22.2635 18.6861 20.4973 16.6325 18.0969 16.2526L17.9143 16.2237Z" fill="#19232E"/>
</svg>
