<svg width="30" height="30" viewBox="0 0 30 30" fill="none" xmlns="http://www.w3.org/2000/svg">
<rect width="30" height="30" rx="12" fill="#0075FF"/>
<g clip-path="url(#clip0_1609_3951)">
<path d="M19.1983 17.464C19.1817 17.231 19.0562 17.0303 18.8538 16.9134C18.7918 16.8776 18.7263 16.8523 18.6595 16.8369L15.146 19.8938L16.3519 21.0997C16.6219 21.3697 17.0612 21.3697 17.3312 21.0997L18.145 20.2859C18.8889 19.5419 19.2728 18.5134 19.1983 17.464Z" fill="white"/>
<path d="M12.5354 10.8031C12.4494 10.797 12.3634 10.7939 12.2778 10.7939C11.3191 10.7939 10.3965 11.1734 9.71359 11.8563L8.89974 12.6702C8.62978 12.9402 8.62978 13.3795 8.89974 13.6494L10.1057 14.8554L13.1627 11.3416C13.1474 11.2749 13.1218 11.2096 13.086 11.1475C12.9691 10.9452 12.7685 10.8196 12.5354 10.8031Z" fill="white"/>
<path d="M8.45223 18.9834C8.01094 19.6128 7.89186 20.4489 8.0983 21.4682C8.14251 21.6866 8.31218 21.8563 8.53057 21.9005C9.54996 22.107 10.386 21.9879 11.0154 21.5466C11.3765 21.2935 11.6265 20.9642 11.7976 20.657L9.34193 18.2012C9.0347 18.3722 8.7054 18.6223 8.45223 18.9834Z" fill="white"/>
<path d="M9.7139 17.4137L12.5862 20.2862C12.7175 20.4175 12.8921 20.4898 13.0777 20.4898C13.2633 20.4897 13.4379 20.4174 13.5692 20.2861L13.9728 19.8825L10.1175 16.0273L9.71401 16.4309C9.44303 16.7019 9.44298 17.1427 9.7139 17.4137Z" fill="white"/>
<path d="M21.936 10.73L21.6469 9.28879C21.552 8.8154 21.1847 8.44812 20.7113 8.35318L19.27 8.06408C18.2031 7.85004 17.1067 8.17933 16.3343 8.94525L10.6865 15.4367L14.5634 19.3136L21.0549 13.6658C21.8207 12.8935 22.1501 11.7971 21.936 10.73ZM19.0731 13.7914C18.691 14.1987 18.152 14.4323 17.5943 14.4323C17.0366 14.4323 16.4975 14.1987 16.1154 13.7914C15.3865 13.0144 15.3865 11.7972 16.1154 11.0203C16.4975 10.613 17.0366 10.3793 17.5943 10.3793H17.5943C18.152 10.3793 18.691 10.6129 19.0731 11.0203C19.802 11.7972 19.802 13.0144 19.0731 13.7914Z" fill="white"/>
<path d="M18.4741 11.5811C18.2431 11.3349 17.9304 11.1992 17.5935 11.1992C17.2567 11.1992 16.9439 11.3348 16.7129 11.5811C16.2793 12.0433 16.2793 12.7675 16.7129 13.2297C16.9439 13.476 17.2567 13.6116 17.5935 13.6116C17.9304 13.6116 18.2431 13.476 18.4741 13.2297C18.9078 12.7675 18.9078 12.0434 18.4741 11.5811Z" fill="white"/>
</g>
<defs>
<clipPath id="clip0_1609_3951">
<rect width="14" height="14" fill="white" transform="translate(8 8)"/>
</clipPath>
</defs>
</svg>
