<svg width="26" height="26" viewBox="0 0 26 26" fill="none" xmlns="http://www.w3.org/2000/svg">
<g clip-path="url(#clip0_679_61768)">
<path d="M15.6 0H10.4C4.65624 0 0 4.65624 0 10.4V15.6C0 21.3438 4.65624 26 10.4 26H15.6C21.3438 26 26 21.3438 26 15.6V10.4C26 4.65624 21.3438 0 15.6 0Z" fill="#19232E"/>
<path d="M16.6385 15.1355C16.6241 14.9336 16.5154 14.7597 16.34 14.6583C16.2862 14.6273 16.2295 14.6054 16.1716 14.592L13.1265 17.2414L14.1716 18.2865C14.4056 18.5205 14.7864 18.5205 15.0204 18.2865L15.7257 17.5812C16.3704 16.9364 16.7031 16.045 16.6385 15.1355Z" fill="white"/>
<path d="M10.864 9.36271C10.7895 9.35742 10.7149 9.35474 10.6408 9.35474C9.80988 9.35474 9.01029 9.68364 8.41844 10.2755L7.7131 10.9809C7.47914 11.2149 7.47914 11.5956 7.7131 11.8295L8.75827 12.8747L11.4077 9.82941C11.3944 9.7716 11.3722 9.71501 11.3412 9.66119C11.2399 9.48586 11.066 9.37701 10.864 9.36271Z" fill="white"/>
<path d="M7.32525 16.4523C6.9428 16.9978 6.83959 17.7224 7.01851 18.6058C7.05682 18.7951 7.20387 18.9422 7.39314 18.9805C8.27661 19.1594 9.00118 19.0562 9.54666 18.6738C9.85962 18.4544 10.0763 18.169 10.2246 17.9028L8.09632 15.7744C7.83006 15.9226 7.54466 16.1394 7.32525 16.4523Z" fill="white"/>
<path d="M8.41868 15.0919L10.908 17.5814C11.0218 17.6952 11.1731 17.7579 11.334 17.7579C11.4948 17.7578 11.6462 17.6951 11.7599 17.5813L12.1097 17.2316L8.76847 13.8904L8.41878 14.2402C8.18393 14.475 8.18389 14.8571 8.41868 15.0919Z" fill="white"/>
<path d="M19.0112 9.29935L18.7606 8.0503C18.6784 7.64003 18.3601 7.32172 17.9498 7.23944L16.7007 6.98889C15.776 6.80338 14.8258 7.08877 14.1564 7.75257L9.26163 13.3785L12.6216 16.7385L18.2476 11.8437C18.9113 11.1744 19.1967 10.2242 19.0112 9.29935ZM16.53 11.9526C16.1989 12.3056 15.7317 12.508 15.2484 12.508C14.765 12.508 14.2978 12.3056 13.9667 11.9526C13.335 11.2792 13.335 10.2243 13.9667 9.55094C14.2978 9.19795 14.765 8.99541 15.2484 8.99541C15.7317 8.99541 16.1989 9.19786 16.53 9.55094C17.1617 10.2243 17.1617 11.2792 16.53 11.9526Z" fill="white"/>
<path d="M16.0109 10.037C15.8107 9.82366 15.5397 9.70605 15.2477 9.70605C14.9558 9.70605 14.6847 9.82358 14.4845 10.037C14.1087 10.4376 14.1087 11.0652 14.4845 11.4658C14.6847 11.6793 14.9558 11.7968 15.2477 11.7968C15.5397 11.7968 15.8107 11.6793 16.0109 11.4658C16.3868 11.0652 16.3868 10.4377 16.0109 10.037Z" fill="white"/>
</g>
<defs>
<clipPath id="clip0_679_61768">
<rect width="26" height="26" fill="white"/>
</clipPath>
</defs>
</svg>
