<svg width="12" height="12" viewBox="0 0 12 12" fill="none" xmlns="http://www.w3.org/2000/svg">
<g clip-path="url(#clip0_1457_2171)">
<path d="M9.5984 8.11173C9.58422 7.91197 9.47659 7.73997 9.30316 7.63982C9.24993 7.60907 9.19387 7.58739 9.13659 7.57422L6.125 10.1944L7.15865 11.2281C7.39009 11.4595 7.76661 11.4595 7.99801 11.2281L8.69559 10.5305C9.33323 9.89282 9.66229 9.01123 9.5984 8.11173Z" fill="#F1F1F1"/>
<path d="M3.88751 2.40236C3.81378 2.39711 3.74004 2.39453 3.66666 2.39453C2.84498 2.39453 2.05416 2.71979 1.46879 3.30516L0.771203 4.00275C0.539807 4.23417 0.539807 4.61069 0.771203 4.8421L1.80485 5.87576L4.42521 2.86398C4.41203 2.80677 4.39014 2.7508 4.35944 2.6976C4.25927 2.52416 4.08727 2.41654 3.88751 2.40236Z" fill="#F1F1F1"/>
<path d="M0.387627 9.41461C0.00937376 9.95413 -0.0926953 10.6707 0.0842557 11.5445C0.122154 11.7317 0.267582 11.8771 0.454775 11.915C1.32854 12.092 2.04513 11.9899 2.58466 11.6117C2.89412 11.3947 3.10845 11.1125 3.2551 10.8492L1.15023 8.74414C0.886887 8.89076 0.604632 9.1051 0.387627 9.41461Z" fill="#F1F1F1"/>
<path d="M1.46905 8.06915L3.93106 10.5313C4.04359 10.6438 4.19319 10.7058 4.3523 10.7058C4.51142 10.7058 4.66106 10.6438 4.77363 10.5312L5.11952 10.1853L1.81503 6.88086L1.46915 7.22675C1.23689 7.45903 1.23684 7.83691 1.46905 8.06915Z" fill="#F1F1F1"/>
<path d="M11.9452 2.34003L11.6974 1.10468C11.616 0.698911 11.3012 0.384102 10.8954 0.302728L9.66003 0.0549264C8.74549 -0.12854 7.8057 0.153714 7.14369 0.810214L2.30273 6.37428L5.6258 9.69735L11.1899 4.85639C11.8463 4.19439 12.1286 3.25465 11.9452 2.34003ZM9.49124 4.96404C9.1637 5.31316 8.70168 5.51341 8.22368 5.51341C7.74566 5.51341 7.28361 5.31319 6.95605 4.96402C6.33131 4.29807 6.33131 3.25474 6.95605 2.5888C7.28359 2.23967 7.74563 2.0394 8.22366 2.0394H8.22368C8.70171 2.0394 9.1637 2.23965 9.49124 2.5888C10.116 3.25476 10.116 4.29807 9.49124 4.96404Z" fill="#F1F1F1"/>
<path d="M8.97782 3.06954C8.7798 2.85846 8.51175 2.74221 8.22302 2.74219C7.93432 2.74219 7.66622 2.85844 7.4682 3.06951C7.09654 3.46572 7.09654 4.08641 7.4682 4.48261C7.66622 4.69369 7.93432 4.80994 8.22302 4.80994C8.51175 4.80994 8.7798 4.69369 8.97782 4.48261C9.34951 4.08643 9.34951 3.46574 8.97782 3.06954Z" fill="#F1F1F1"/>
</g>
<defs>
<clipPath id="clip0_1457_2171">
<rect width="12" height="12" fill="white"/>
</clipPath>
</defs>
</svg>
