<svg width="11" height="12" viewBox="0 0 11 12" fill="none" xmlns="http://www.w3.org/2000/svg">
<path d="M4.71893 6.70807C4.96286 6.8543 5.21593 6.98477 5.47659 7.09869C6.2137 7.44146 6.81963 7.72369 6.94982 8.87896C6.96745 9.08366 6.96745 9.28949 6.94982 9.49419C6.94982 9.52544 6.94982 9.55865 6.94297 9.63677L6.86466 11.2774C7.57338 11.2774 8.25762 11.2999 8.86062 11.336C8.99669 11.3047 9.18855 11.2383 9.39118 11.1876L7.80733 5.29791L7.57338 5.38971L7.48626 5.42096C6.97821 5.60065 6.61015 5.73053 5.96604 5.57233C5.96152 5.57327 5.95685 5.57327 5.95234 5.57233C5.50205 5.3985 5.26711 5.15631 5.04099 4.91901L5.00477 4.8819L4.7111 6.711L4.71893 6.70807ZM1.54048 2.88092L2.35883 2.93952C2.56635 2.95417 2.70046 3.19733 2.66326 3.42096L2.22178 6.08209C2.18654 6.29596 1.15186 6.47271 0.91007 6.53326C0.708418 6.586 0.567458 6.27545 0.606614 6.05377L1.10095 3.21393C1.11785 3.11298 1.17276 3.02229 1.25445 2.96039C1.33615 2.89849 1.43847 2.87006 1.54048 2.88092ZM5.55393 11.2959C5.56665 10.6543 5.58819 10.2286 5.62441 9.53814V9.43365C5.63289 9.32221 5.63517 9.21038 5.63126 9.09869C5.62711 9.00169 5.60486 8.90631 5.56567 8.81744L5.56274 8.78814C5.51673 8.69048 5.47464 8.59283 5.41199 8.56646C5.2316 8.48761 5.04696 8.41882 4.85891 8.36041C4.59853 8.27545 4.30878 8.18853 4.05231 8.11627C3.86436 8.74029 3.60887 9.49126 3.34066 10.2061C3.13117 10.753 2.85121 11.0997 2.62998 11.4756C3.45519 11.378 4.49575 11.3174 5.56665 11.292L5.55393 11.2959ZM1.08921 11.8096C1.32903 11.2237 1.76758 10.503 2.03775 9.73052C2.31576 8.93658 2.58201 8.12701 2.77779 7.47662C2.65496 7.33203 2.55253 7.17137 2.47336 6.99908C2.38251 6.80231 2.35383 6.58262 2.39113 6.3692L2.75332 4.43659C2.89624 3.39753 2.92365 2.83698 4.02588 2.91022C5.06644 2.9776 5.55393 3.52448 5.93178 3.94831C6.09917 4.13581 6.24404 4.29791 6.39969 4.37213C6.47311 4.40729 6.58959 4.35846 6.72076 4.3028C6.80313 4.26495 6.88781 4.23234 6.9743 4.20514L7.08785 4.16217L7.15343 4.13776L7.46081 4.01569L7.33453 3.54401C7.31661 3.46049 7.33154 3.3733 7.37624 3.30045C7.42093 3.2276 7.49198 3.17467 7.57468 3.1526C7.65739 3.13053 7.74543 3.14101 7.82062 3.18187C7.8958 3.22273 7.95237 3.29084 7.97864 3.37213L8.08534 3.76862L8.10002 3.76276C8.16778 3.74342 8.23889 3.73874 8.30861 3.74901C8.37832 3.75928 8.44504 3.78428 8.5043 3.82233C8.59979 3.87995 8.68028 3.95925 8.73924 4.05377C8.80379 4.15682 8.83773 4.27601 8.83713 4.39752C8.83027 4.51129 8.80077 4.62256 8.75035 4.72484C8.69993 4.82712 8.6296 4.91835 8.54346 4.99323C8.53482 5.00155 8.52446 5.00788 8.51311 5.01178L8.4211 5.04791L10.0656 11.1319C10.1513 11.1467 10.2303 11.1876 10.2918 11.2491C10.401 11.3693 10.4893 11.507 10.5531 11.6563L10.6001 12H0.909091C0.909091 11.9317 0.974676 11.8682 1.09019 11.8106L1.08921 11.8096ZM4.11202 0.0664762C4.38507 -0.0263333 4.68193 -0.0218403 4.95204 0.0791901C5.22214 0.18022 5.44879 0.37154 5.59337 0.620562C5.73795 0.869584 5.79153 1.16091 5.74498 1.44492C5.69842 1.72892 5.55462 1.98805 5.33806 2.17816C5.1215 2.36826 4.84557 2.4776 4.55728 2.48753C4.26899 2.49747 3.98616 2.4074 3.75696 2.23266C3.52776 2.05791 3.36637 1.80931 3.30028 1.52918C3.23419 1.24906 3.26749 0.954742 3.39449 0.696358C3.46652 0.549333 3.56701 0.417984 3.69016 0.309878C3.8133 0.201773 3.95668 0.11905 4.11202 0.0664762Z" fill="white"/>
</svg>
