<svg width="26" height="26" viewBox="0 0 26 26" fill="none" xmlns="http://www.w3.org/2000/svg">
<g clip-path="url(#clip0_679_61777)">
<path d="M15.6 0H10.4C4.65624 0 0 4.65624 0 10.4V15.6C0 21.3438 4.65624 26 10.4 26H15.6C21.3438 26 26 21.3438 26 15.6V10.4C26 4.65624 21.3438 0 15.6 0Z" fill="#19232E"/>
<path d="M11.1783 14.0621C11.5442 14.2814 11.9238 14.4771 12.3148 14.648C13.4204 15.1621 14.3293 15.5855 14.5246 17.3184C14.551 17.6254 14.551 17.9342 14.5246 18.2412C14.5246 18.2881 14.5246 18.3379 14.5143 18.4551L14.3969 20.916C15.4599 20.916 16.4863 20.9497 17.3908 21.0039C17.5949 20.957 17.8827 20.8574 18.1866 20.7813L15.8109 11.9468L15.4599 12.0845L15.3292 12.1314C14.5672 12.4009 14.0151 12.5958 13.0489 12.3585C13.0421 12.3599 13.0351 12.3599 13.0284 12.3585C12.3529 12.0977 12.0005 11.7344 11.6614 11.3785L11.607 11.3228L11.1665 14.0665L11.1783 14.0621ZM6.41061 8.32137L7.63813 8.40926C7.94942 8.43123 8.15058 8.79598 8.09478 9.13142L7.43256 13.1231C7.3797 13.4439 5.82768 13.709 5.465 13.7999C5.16253 13.879 4.95109 13.4131 5.00982 13.0806L5.75133 8.82088C5.77667 8.66946 5.85903 8.53341 5.98158 8.44057C6.10412 8.34772 6.25759 8.30508 6.41061 8.32137ZM12.4308 20.9439C12.4498 19.9815 12.4822 19.3428 12.5365 18.3072V18.1504C12.5492 17.9833 12.5526 17.8155 12.5468 17.648C12.5405 17.5025 12.5072 17.3594 12.4484 17.2261L12.444 17.1822C12.375 17.0357 12.3118 16.8892 12.2179 16.8496C11.9473 16.7314 11.6703 16.6282 11.3882 16.5406C10.9977 16.4131 10.563 16.2827 10.1783 16.1744C9.89642 17.1104 9.51319 18.2368 9.11087 19.3091C8.79664 20.1294 8.3767 20.6494 8.04486 21.2134C9.28266 21.0669 10.8435 20.9761 12.4498 20.938L12.4308 20.9439ZM5.73371 21.7144C6.09345 20.8355 6.75126 19.7544 7.15652 18.5957C7.57352 17.4048 7.97291 16.1905 8.26658 15.2149C8.08233 14.998 7.92869 14.757 7.80992 14.4986C7.67365 14.2034 7.63063 13.8739 7.68658 13.5538L8.22987 10.6549C8.44424 9.09627 8.48536 8.25545 10.1387 8.36531C11.6995 8.46639 12.4308 9.2867 12.9975 9.92243C13.2486 10.2037 13.4659 10.4468 13.6994 10.5582C13.8095 10.6109 13.9843 10.5377 14.181 10.4542C14.3046 10.3974 14.4316 10.3485 14.5613 10.3077L14.7316 10.2432L14.83 10.2066L15.2911 10.0235L15.1017 9.31599C15.0748 9.19072 15.0972 9.05992 15.1642 8.95065C15.2313 8.84138 15.3378 8.76199 15.4619 8.72889C15.5859 8.69578 15.718 8.7115 15.8308 8.77279C15.9436 8.83407 16.0284 8.93625 16.0678 9.05818L16.2279 9.6529L16.2499 9.64412C16.3515 9.61511 16.4582 9.60808 16.5628 9.62349C16.6673 9.6389 16.7674 9.6764 16.8563 9.73347C16.9995 9.8199 17.1203 9.93885 17.2087 10.0806C17.3055 10.2352 17.3564 10.414 17.3555 10.5963C17.3453 10.7669 17.301 10.9338 17.2254 11.0872C17.1497 11.2406 17.0442 11.3775 16.915 11.4898C16.9021 11.5023 16.8865 11.5118 16.8695 11.5176L16.7315 11.5718L19.1983 20.6978C19.3268 20.72 19.4453 20.7814 19.5375 20.8735C19.7013 21.0539 19.8339 21.2604 19.9295 21.4844L20 22H5.46353C5.46353 21.8975 5.56191 21.8022 5.73517 21.7158L5.73371 21.7144ZM10.2679 4.09971C10.6775 3.9605 11.1228 3.96724 11.5279 4.11878C11.9331 4.27033 12.273 4.55731 12.4899 4.93084C12.7068 5.30437 12.7872 5.74136 12.7173 6.16736C12.6475 6.59337 12.4318 6.98206 12.107 7.26722C11.7821 7.55238 11.3682 7.71638 10.9358 7.73129C10.5034 7.74619 10.0791 7.61108 9.73532 7.34897C9.39152 7.08686 9.14944 6.71395 9.05031 6.29377C8.95117 5.87358 9.00111 5.43211 9.19162 5.04453C9.29967 4.824 9.4504 4.62697 9.63512 4.46482C9.81984 4.30266 10.0349 4.17857 10.2679 4.09971Z" fill="white"/>
</g>
<defs>
<clipPath id="clip0_679_61777">
<rect width="26" height="26" fill="white"/>
</clipPath>
</defs>
</svg>
