<svg width="26" height="26" viewBox="0 0 26 26" fill="none" xmlns="http://www.w3.org/2000/svg">
<g clip-path="url(#clip0_679_61810)">
<path d="M15.6 0H10.4C4.65624 0 0 4.65624 0 10.4V15.6C0 21.3438 4.65624 26 10.4 26H15.6C21.3438 26 26 21.3438 26 15.6V10.4C26 4.65624 21.3438 0 15.6 0Z" fill="#0075FF"/>
<path d="M10.6514 7.83314C10.1554 7.71675 9.63899 7.71675 9.14283 7.83314C8.49296 7.98557 7.98557 8.49296 7.83314 9.14283C7.71675 9.63891 7.71675 10.1554 7.83314 10.6514C7.98557 11.3013 8.49296 11.8087 9.14283 11.9611C9.63899 12.0775 10.1554 12.0775 10.6514 11.9611C11.3013 11.8087 11.8087 11.3013 11.9611 10.6514C12.0775 10.1554 12.0775 9.63899 11.9611 9.14283C11.8087 8.49296 11.3013 7.98557 10.6514 7.83314Z" fill="white"/>
<path d="M10.6514 13.6056C10.1554 13.4892 9.63899 13.4892 9.14283 13.6056C8.49296 13.7581 7.98557 14.2654 7.83314 14.9153C7.71675 15.4114 7.71675 15.9278 7.83314 16.4239C7.98557 17.0738 8.49296 17.5812 9.14283 17.7336C9.63899 17.85 10.1554 17.85 10.6514 17.7336C11.3013 17.5812 11.8087 17.0737 11.9611 16.4239C12.0775 15.9278 12.0775 15.4114 11.9611 14.9153C11.8087 14.2655 11.3013 13.7581 10.6514 13.6056Z" fill="white"/>
<path d="M16.4239 7.83314C15.9278 7.71675 15.4113 7.71675 14.9153 7.83314C14.2654 7.98557 13.758 8.49296 13.6055 9.14283C13.4892 9.63891 13.4892 10.1554 13.6055 10.6514C13.758 11.3013 14.2654 11.8087 14.9153 11.9611C15.4113 12.0775 15.9277 12.0775 16.4239 11.9611C17.0737 11.8087 17.5811 11.3013 17.7336 10.6514C17.85 10.1554 17.85 9.63899 17.7336 9.14283C17.5811 8.49296 17.0737 7.98557 16.4239 7.83314Z" fill="white"/>
<path d="M16.4239 13.6056C15.9278 13.4892 15.4113 13.4892 14.9153 13.6056C14.2654 13.7581 13.758 14.2654 13.6055 14.9153C13.4892 15.4114 13.4892 15.9278 13.6055 16.4239C13.758 17.0738 14.2654 17.5812 14.9153 17.7336C15.4113 17.85 15.9277 17.85 16.4239 17.7336C17.0737 17.5812 17.5811 17.0737 17.7336 16.4239C17.85 15.9278 17.85 15.4114 17.7336 14.9153C17.5811 14.2655 17.0737 13.7581 16.4239 13.6056Z" fill="white"/>
</g>
<defs>
<clipPath id="clip0_679_61810">
<rect width="26" height="26" fill="white"/>
</clipPath>
</defs>
</svg>
