<svg width="12" height="12" viewBox="0 0 12 12" fill="none" xmlns="http://www.w3.org/2000/svg">
<g clip-path="url(#clip0_1457_2311)">
<path d="M3.46079 0.103965C2.86983 -0.0346552 2.25481 -0.0346551 1.66385 0.103965C0.88986 0.285519 0.28552 0.889859 0.103966 1.66385C-0.0346552 2.25481 -0.0346552 2.86983 0.103966 3.4608C0.28552 4.23479 0.889861 4.83913 1.66385 5.02068C2.25481 5.1593 2.86983 5.1593 3.46079 5.02068C4.23479 4.83913 4.83913 4.23479 5.02068 3.46079C5.1593 2.86983 5.1593 2.25481 5.02068 1.66385C4.83913 0.88986 4.23479 0.28552 3.46079 0.103965Z" fill="#19232E"/>
<path d="M3.46079 6.97932C2.86983 6.8407 2.25481 6.8407 1.66385 6.97932C0.88986 7.16087 0.28552 7.76521 0.103966 8.5392C-0.0346552 9.13017 -0.0346552 9.74519 0.103966 10.3361C0.28552 11.1101 0.889861 11.7145 1.66385 11.896C2.25481 12.0347 2.86983 12.0347 3.46079 11.896C4.23479 11.7145 4.83913 11.1101 5.02068 10.3361C5.1593 9.74519 5.1593 9.13017 5.02068 8.53921C4.83913 7.76521 4.23479 7.16087 3.46079 6.97932Z" fill="#19232E"/>
<path d="M10.3361 0.103965C9.74519 -0.0346552 9.13017 -0.0346551 8.53921 0.103965C7.76521 0.285519 7.16087 0.889859 6.97932 1.66385C6.8407 2.25481 6.8407 2.86983 6.97932 3.4608C7.16087 4.23479 7.76521 4.83913 8.53921 5.02068C9.13017 5.1593 9.74519 5.1593 10.3361 5.02068C11.1101 4.83913 11.7145 4.23479 11.896 3.46079C12.0347 2.86983 12.0347 2.25481 11.896 1.66385C11.7145 0.88986 11.1101 0.28552 10.3361 0.103965Z" fill="#19232E"/>
<path d="M10.3361 6.97932C9.74519 6.8407 9.13017 6.8407 8.53921 6.97932C7.76521 7.16087 7.16087 7.76521 6.97932 8.5392C6.8407 9.13017 6.8407 9.74519 6.97932 10.3361C7.16087 11.1101 7.76521 11.7145 8.53921 11.896C9.13017 12.0347 9.74519 12.0347 10.3361 11.896C11.1101 11.7145 11.7145 11.1101 11.896 10.3361C12.0347 9.74519 12.0347 9.13017 11.896 8.53921C11.7145 7.76521 11.1101 7.16087 10.3361 6.97932Z" fill="#19232E"/>
</g>
<defs>
<clipPath id="clip0_1457_2311">
<rect width="12" height="12" fill="white"/>
</clipPath>
</defs>
</svg>
