<svg width="26" height="26" viewBox="0 0 26 26" fill="none" xmlns="http://www.w3.org/2000/svg">
<g clip-path="url(#clip0_679_61780)">
<path d="M15.5046 0H10.3046C4.56081 0 -0.0954285 4.65624 -0.0954285 10.4V15.6C-0.0954285 21.3438 4.56081 26 10.3046 26H15.5046C21.2483 26 25.9046 21.3438 25.9046 15.6V10.4C25.9046 4.65624 21.2483 0 15.5046 0Z" fill="#19232E"/>
<path d="M18.5198 6.0716L12.9774 6.94911C12.8222 6.97369 12.6974 7.0878 12.6592 7.24022C12.4376 8.12389 11.5549 11.1864 9.42017 13.7882C10.032 14.3122 10.6845 14.9576 11.2507 15.6188C13.8526 13.4841 16.9151 12.6013 17.7988 12.3798C17.9511 12.3416 18.0653 12.2168 18.0899 12.0616L18.9674 6.51918C19.009 6.25666 18.7823 6.03003 18.5198 6.0716Z" fill="white"/>
<path d="M11.8306 16.8518C11.1615 15.7431 9.29509 13.8765 8.1859 13.207C8.25049 12.9849 8.19821 12.7359 8.02307 12.5608C7.76581 12.3035 7.35082 12.3035 7.09494 12.5594C6.83768 12.8167 6.83768 13.2317 7.09494 13.4889C7.26998 13.6639 7.51878 13.7162 7.74133 13.6514C7.92539 13.9564 8.21857 14.345 8.58971 14.7725L6.55422 17.3075C6.30715 17.1672 6.10491 17.1229 6.01711 17.2107C5.85623 17.3716 6.13233 17.9066 6.63163 18.4059C7.13096 18.9053 7.66604 19.1813 7.8269 19.0205C7.91467 18.9327 7.87034 18.7305 7.73003 18.4833L10.2651 16.4479C10.6926 16.819 11.0812 17.1122 11.3863 17.2962C11.3214 17.5189 11.3741 17.7681 11.5501 17.944C11.8059 18.1999 12.2209 18.1999 12.4782 17.9426C12.734 17.6868 12.734 17.2718 12.4782 17.0159C12.3021 16.8399 12.0528 16.7873 11.8306 16.8518Z" fill="white"/>
</g>
<defs>
<clipPath id="clip0_679_61780">
<rect width="26" height="26" fill="white"/>
</clipPath>
</defs>
</svg>
