<svg width="12" height="12" viewBox="0 0 12 12" fill="none" xmlns="http://www.w3.org/2000/svg">
<g clip-path="url(#clip0_1457_2179)">
<path d="M11.5832 0.00456463L6.46716 0.814588C6.32389 0.837276 6.2087 0.942604 6.17342 1.0833C5.969 1.89899 5.15405 4.72591 3.18359 7.1276C3.74841 7.61128 4.35071 8.20703 4.87337 8.81737C7.27505 6.84689 10.102 6.03196 10.9177 5.82752C11.0584 5.79224 11.1637 5.67705 11.1864 5.53378L11.9964 0.417721C12.0348 0.175401 11.8256 -0.0338026 11.5832 0.00456463Z" fill="#F1F1F1"/>
<path d="M5.40865 9.95558C4.79102 8.93218 3.06813 7.20913 2.04429 6.5912C2.10391 6.38612 2.05565 6.15632 1.89398 5.99467C1.65651 5.7572 1.27345 5.7572 1.03725 5.99338C0.799779 6.23085 0.799779 6.61391 1.03725 6.85138C1.19883 7.01296 1.42849 7.06124 1.63392 7.00133C1.80382 7.28286 2.07445 7.64158 2.41706 8.03624L0.538123 10.3763C0.310052 10.2467 0.123373 10.2058 0.0423259 10.2868C-0.106174 10.4353 0.148685 10.9292 0.609584 11.3902C1.07051 11.8511 1.56443 12.1059 1.7129 11.9574C1.79393 11.8764 1.75301 11.6897 1.62349 11.4616L3.96349 9.58272C4.35818 9.92533 4.71691 10.196 4.99847 10.3659C4.93865 10.5714 4.98719 10.8013 5.14966 10.9638C5.38586 11.2 5.7689 11.2 6.00637 10.9625C6.24258 10.7263 6.24258 10.3433 6.00637 10.1071C5.84386 9.94457 5.61379 9.89605 5.40865 9.95558Z" fill="#F1F1F1"/>
</g>
<defs>
<clipPath id="clip0_1457_2179">
<rect width="12" height="12" fill="white"/>
</clipPath>
</defs>
</svg>
