<svg width="30" height="30" viewBox="0 0 30 30" fill="none" xmlns="http://www.w3.org/2000/svg">
<rect width="30" height="30" rx="12" fill="#0075FF"/>
<g clip-path="url(#clip0_1609_3968)">
<g clip-path="url(#clip1_1609_3968)">
<path d="M21.4791 7.00571L15.084 8.01823C14.9049 8.04659 14.7609 8.17825 14.7168 8.35412C14.4612 9.37374 13.4426 12.9074 10.9795 15.9095C11.6855 16.5141 12.4384 17.2588 13.0917 18.0217C16.0938 15.5586 19.6275 14.54 20.6471 14.2844C20.8229 14.2403 20.9546 14.0963 20.983 13.9172L21.9955 7.52215C22.0435 7.21925 21.782 6.95775 21.4791 7.00571Z" fill="white"/>
<path d="M13.7608 19.4445C12.9888 18.1652 10.8352 16.0114 9.55536 15.239C9.62989 14.9827 9.56957 14.6954 9.36748 14.4933C9.07064 14.1965 8.59181 14.1965 8.29656 14.4917C7.99972 14.7886 7.99972 15.2674 8.29656 15.5642C8.49853 15.7662 8.78561 15.8265 9.0424 15.7517C9.25477 16.1036 9.59306 16.552 10.0213 17.0453L7.67265 19.9703C7.38757 19.8084 7.15422 19.7573 7.05291 19.8586C6.86728 20.0442 7.18586 20.6616 7.76198 21.2377C8.33813 21.8139 8.95553 22.1324 9.14113 21.9468C9.24241 21.8455 9.19126 21.6122 9.02936 21.327L11.9544 18.9784C12.4477 19.4067 12.8961 19.745 13.2481 19.9573C13.1733 20.2142 13.234 20.5017 13.4371 20.7047C13.7323 21 14.2111 21 14.508 20.7031C14.8032 20.4079 14.8032 19.9291 14.508 19.6338C14.3048 19.4307 14.0172 19.3701 13.7608 19.4445Z" fill="white"/>
</g>
</g>
<defs>
<clipPath id="clip0_1609_3968">
<rect width="15" height="15" fill="white" transform="translate(7 7)"/>
</clipPath>
<clipPath id="clip1_1609_3968">
<rect width="15" height="15" fill="white" transform="translate(7 7)"/>
</clipPath>
</defs>
</svg>
