<svg width="13" height="12" viewBox="0 0 13 12" fill="none" xmlns="http://www.w3.org/2000/svg">
<path fill-rule="evenodd" clip-rule="evenodd" d="M1.42033 2.28831L6.2569 4.25594C6.41021 4.31843 6.6641 4.35749 6.81741 4.295L11.9362 2.20433C12.0895 2.14183 11.9342 1.86353 11.778 1.80885L6.61625 0.000386223C6.57719 -0.0132847 5.60753 0.340205 5.4718 0.388054L1.26214 1.89283C1.09907 1.95044 1.21039 2.20238 1.42033 2.28831ZM12.2067 9.21261L7.15527 11.9526C7.00977 12.0317 6.80764 12.02 6.80764 11.854L6.80666 5.40625C6.80666 5.24024 6.82034 5.07815 6.97267 5.01272L12.0426 2.85272C12.1949 2.78827 12.4068 2.84588 12.4059 3.01091L12.3727 8.81909C12.3717 8.98411 12.3522 9.13352 12.2067 9.21261ZM11.0466 6.94227C11.3903 7.08874 11.4909 7.60335 11.2692 8.09258C11.0485 8.58082 10.5896 8.85814 10.2459 8.71167C9.90214 8.5652 9.80157 8.05059 10.0232 7.56136C10.2449 7.07312 10.7029 6.79579 11.0466 6.94227ZM9.21372 5.59373C9.57014 5.74509 9.67267 6.27825 9.44417 6.78408C9.21567 7.2899 8.7411 7.57699 8.38468 7.42563C8.02826 7.27427 7.92572 6.74111 8.15422 6.23529C8.38272 5.72849 8.8573 5.4414 9.21372 5.59373ZM0.971148 9.16867L5.97665 11.8784C6.12214 11.9575 6.32428 11.9458 6.32428 11.7798L6.32525 5.3916C6.32525 5.22559 6.31158 5.0635 6.15925 4.99807L1.15766 2.8537C1.00533 2.78827 0.794403 2.84686 0.794403 3.01286L0.805144 8.77612C0.805144 8.94115 0.825651 9.08957 0.971148 9.16867ZM1.46916 7.39634C1.78261 7.19713 2.24938 7.42465 2.5101 7.90411C2.77082 8.38357 2.72883 8.93529 2.41538 9.13449C2.10193 9.3337 1.63516 9.10617 1.37444 8.62672C1.11372 8.14628 1.15571 7.59554 1.46916 7.39634ZM2.94854 6.28607C3.28055 6.08491 3.77368 6.31438 4.05003 6.7997C4.32637 7.28502 4.28243 7.84162 3.95043 8.04277C3.61842 8.24393 3.12529 8.01446 2.84894 7.52914C2.57162 7.0448 2.61654 6.4882 2.94854 6.28607ZM4.51679 5.11427C4.85075 4.91214 5.34779 5.14259 5.62609 5.62791C5.90439 6.11323 5.85947 6.6708 5.52551 6.87196C5.19155 7.07409 4.69451 6.84364 4.41621 6.35833C4.13791 5.87301 4.18283 5.31641 4.51679 5.11427ZM6.57133 1.512C7.16113 1.512 7.63864 1.7405 7.63864 2.02172C7.63864 2.30295 7.16113 2.53145 6.57133 2.53145C5.98251 2.53145 5.50402 2.30295 5.50402 2.02172C5.50402 1.7405 5.98251 1.512 6.57133 1.512Z" fill="#19232E"/>
</svg>
