<svg width="26" height="26" viewBox="0 0 26 26" fill="none" xmlns="http://www.w3.org/2000/svg">
<g clip-path="url(#clip0_679_61785)">
<path d="M15.6 0H10.4C4.65624 0 0 4.65624 0 10.4V15.6C0 21.3438 4.65624 26 10.4 26H15.6C21.3438 26 26 21.3438 26 15.6V10.4C26 4.65624 21.3438 0 15.6 0Z" fill="#19232E"/>
<path fill-rule="evenodd" clip-rule="evenodd" d="M6.02524 8.86038L12.0709 11.3199C12.2626 11.398 12.5799 11.4469 12.7716 11.3687L19.17 8.75541C19.3617 8.67729 19.1676 8.32942 18.9723 8.26106L12.5201 6.00048C12.4713 5.98339 11.2592 6.42526 11.0896 6.48507L5.8275 8.36603C5.62366 8.43805 5.76281 8.75297 6.02524 8.86038ZM19.5082 17.5158L13.1939 20.9408C13.012 21.0397 12.7594 21.025 12.7594 20.8175L12.7582 12.7578C12.7582 12.5503 12.7752 12.3477 12.9657 12.2659L19.3031 9.5659C19.4935 9.48534 19.7584 9.55735 19.7572 9.76364L19.7157 17.0239C19.7144 17.2301 19.69 17.4169 19.5082 17.5158ZM18.0581 14.6778C18.4877 14.8609 18.6134 15.5042 18.3364 16.1157C18.0605 16.726 17.4868 17.0727 17.0572 16.8896C16.6275 16.7065 16.5018 16.0632 16.7789 15.4517C17.0559 14.8414 17.6284 14.4947 18.0581 14.6778ZM15.767 12.9922C16.2125 13.1814 16.3407 13.8478 16.055 14.4801C15.7694 15.1124 15.1762 15.4712 14.7307 15.282C14.2851 15.0928 14.157 14.4264 14.4426 13.7941C14.7282 13.1606 15.3214 12.8017 15.767 12.9922ZM5.46376 17.4608L11.7206 20.848C11.9025 20.9469 12.1552 20.9323 12.1552 20.7248L12.1564 12.7395C12.1564 12.532 12.1393 12.3294 11.9489 12.2476L5.6969 9.56712C5.50648 9.48534 5.24283 9.55858 5.24283 9.76608L5.25626 16.9701C5.25626 17.1764 5.28189 17.362 5.46376 17.4608ZM6.08627 15.2454C6.47809 14.9964 7.06154 15.2808 7.38745 15.8801C7.71335 16.4795 7.66087 17.1691 7.26905 17.4181C6.87723 17.6671 6.29378 17.3827 5.96787 16.7834C5.64197 16.1829 5.69446 15.4944 6.08627 15.2454ZM7.9355 13.8576C8.35051 13.6061 8.96692 13.893 9.31236 14.4996C9.65779 15.1063 9.60287 15.802 9.18786 16.0535C8.77285 16.3049 8.15644 16.0181 7.811 15.4114C7.46435 14.806 7.5205 14.1102 7.9355 13.8576ZM9.89581 12.3928C10.3133 12.1402 10.9346 12.4282 11.2824 13.0349C11.6303 13.6415 11.5742 14.3385 11.1567 14.59C10.7393 14.8426 10.118 14.5546 9.77009 13.9479C9.42221 13.3413 9.47836 12.6455 9.89581 12.3928ZM12.464 7.88999C13.2012 7.88999 13.7981 8.17562 13.7981 8.52716C13.7981 8.87869 13.2012 9.16432 12.464 9.16432C11.728 9.16432 11.1299 8.87869 11.1299 8.52716C11.1299 8.17562 11.728 7.88999 12.464 7.88999Z" fill="white"/>
</g>
<defs>
<clipPath id="clip0_679_61785">
<rect width="26" height="26" fill="white"/>
</clipPath>
</defs>
</svg>
