<svg width="26" height="26" viewBox="0 0 26 26" fill="none" xmlns="http://www.w3.org/2000/svg">
<g clip-path="url(#clip0_679_61841)">
<path d="M15.6 0H10.4C4.65624 0 0 4.65624 0 10.4V15.6C0 21.3438 4.65624 26 10.4 26H15.6C21.3438 26 26 21.3438 26 15.6V10.4C26 4.65624 21.3438 0 15.6 0Z" fill="#0075FF"/>
<path d="M13.197 6V12.8288H20.0257V14.1455H13.197V20.9743H11.8802V14.1455H5.05144V12.8288H11.8802V6H13.197ZM19.6325 16.6578L18.1345 18.0835L19.6742 19.5485L18.769 20.5002L17.1815 18.99L15.5941 20.5015L14.6889 19.5497L16.2286 18.0848L14.7305 16.6578L15.6357 15.7073L17.1815 17.1783L18.7273 15.7073L19.6325 16.6578ZM10.3736 7.36698L8.85472 8.81235L10.3736 10.2577L9.46839 11.2095L7.90176 9.71877L6.33513 11.2095L5.42993 10.2577L6.9488 8.81235L5.42993 7.36698L6.33513 6.41646L7.90176 7.90593L9.46839 6.41524L10.3736 7.36698ZM7.77682 15.3949C8.55095 15.3949 9.25159 15.7085 9.75869 16.2156C10.2658 16.7227 10.5794 17.4233 10.5794 18.1975C10.5794 18.9716 10.2658 19.6722 9.75869 20.1793C9.25159 20.6864 8.55095 21 7.77682 21C7.00269 21 6.30205 20.6864 5.79495 20.1793C5.28785 19.671 4.97427 18.9704 4.97427 18.1975C4.97427 17.4233 5.28785 16.7227 5.79495 16.2156C6.30205 15.7085 7.00269 15.3949 7.77682 15.3949ZM17.1607 6.0098C17.9348 6.0098 18.6355 6.32337 19.1426 6.83048C19.6497 7.33758 19.9633 8.03822 19.9633 8.81235C19.9633 9.58648 19.6497 10.2871 19.1426 10.7942C18.6355 11.3013 17.9348 11.6149 17.1607 11.6149C16.3866 11.6149 15.6859 11.3013 15.1788 10.7942C14.6717 10.2871 14.3582 9.58648 14.3582 8.81235C14.3582 8.03822 14.6717 7.33758 15.1788 6.83048C15.6872 6.3246 16.3878 6.0098 17.1607 6.0098Z" fill="white"/>
</g>
<defs>
<clipPath id="clip0_679_61841">
<rect width="26" height="26" fill="white"/>
</clipPath>
</defs>
</svg>
