<svg width="13" height="12" viewBox="0 0 13 12" fill="none" xmlns="http://www.w3.org/2000/svg">
<path d="M7.15669 0.0112305V5.4641H12.6096V6.51555H7.15669V11.9684H6.10525V6.51555H0.652379V5.4641H6.10525V0.0112305H7.15669ZM12.2956 8.52162L11.0994 9.66011L12.3288 10.8299L11.606 11.5899L10.3384 10.3839L9.07082 11.5909L8.34801 10.8309L9.57747 9.66109L8.38127 8.52162L9.10408 7.76261L10.3384 8.9373L11.5728 7.76261L12.2956 8.52162ZM4.90219 1.10278L3.68936 2.25693L4.90219 3.41108L4.17938 4.17106L2.9284 2.98072L1.67742 4.17106L0.95461 3.41108L2.16744 2.25693L0.95461 1.10278L1.67742 0.343782L2.9284 1.53314L4.17938 0.342804L4.90219 1.10278ZM2.82864 7.5132C3.44679 7.5132 4.00626 7.76359 4.41119 8.16852C4.81612 8.57345 5.06651 9.13292 5.06651 9.75108C5.06651 10.3692 4.81612 10.9287 4.41119 11.3336C4.00626 11.7386 3.44679 11.989 2.82864 11.989C2.21048 11.989 1.65101 11.7386 1.24608 11.3336C0.841151 10.9277 0.590759 10.3683 0.590759 9.75108C0.590759 9.13292 0.841151 8.57345 1.24608 8.16852C1.65101 7.76359 2.21048 7.5132 2.82864 7.5132ZM10.3218 0.0190552C10.94 0.0190552 11.4994 0.269447 11.9044 0.674377C12.3093 1.07931 12.5597 1.63878 12.5597 2.25693C12.5597 2.87509 12.3093 3.43455 11.9044 3.83948C11.4994 4.24442 10.94 4.49481 10.3218 4.49481C9.70365 4.49481 9.14418 4.24442 8.73925 3.83948C8.33432 3.43455 8.08393 2.87509 8.08393 2.25693C8.08393 1.63878 8.33432 1.07931 8.73925 0.674377C9.14516 0.270425 9.70463 0.0190552 10.3218 0.0190552Z" fill="white"/>
</svg>
