<svg width="30" height="30" viewBox="0 0 30 30" fill="none" xmlns="http://www.w3.org/2000/svg">
<path fill-rule="evenodd" clip-rule="evenodd" d="M18.7058 7.78238C19.075 7.78744 19.4449 7.79252 19.8162 7.79631C23.8053 7.79631 26.7137 10.6402 26.7137 14.5676V19.6122C26.7137 23.5395 23.8053 26.3834 19.8162 26.3834C18.2183 26.4173 16.6204 26.4286 15.0109 26.4286C13.4015 26.4286 11.7806 26.4173 10.1827 26.3834C6.19361 26.3834 3.28516 23.5395 3.28516 19.6122V14.5676C3.28516 10.6402 6.19361 7.79631 10.1942 7.79631C11.7001 7.77374 13.2406 7.75117 14.804 7.75117V7.55932C14.804 6.78062 14.1487 6.14864 13.367 6.14864H12.2289C10.9299 6.14864 9.87229 5.11038 9.87229 3.84641C9.87229 3.3837 10.2631 3 10.7345 3C11.2173 3 11.5967 3.3837 11.5967 3.84641C11.5967 4.18497 11.8841 4.45582 12.2289 4.45582H13.367C15.1029 4.46711 16.5169 5.85522 16.5284 7.54803V7.76246C17.2531 7.76246 17.9778 7.77239 18.7058 7.78238ZM13.6548 17.9293H12.4477V19.1255C12.4477 19.5882 12.0569 19.9719 11.5855 19.9719C11.1027 19.9719 10.7233 19.5882 10.7233 19.1255V17.9293H9.50477C9.03344 17.9293 8.64258 17.5569 8.64258 17.0829C8.64258 16.6202 9.03344 16.2365 9.50477 16.2365H10.7233V15.0515C10.7233 14.5888 11.1027 14.2051 11.5855 14.2051C12.0569 14.2051 12.4477 14.5888 12.4477 15.0515V16.2365H13.6548C14.1261 16.2365 14.517 16.6202 14.517 17.0829C14.517 17.5569 14.1261 17.9293 13.6548 17.9293ZM18.5399 16.0214H18.6549C19.1262 16.0214 19.5171 15.649 19.5171 15.175C19.5171 14.7123 19.1262 14.3286 18.6549 14.3286H18.5399C18.0571 14.3286 17.6777 14.7123 17.6777 15.175C17.6777 15.649 18.0571 16.0214 18.5399 16.0214ZM20.5067 19.9042H20.6217C21.093 19.9042 21.4839 19.5318 21.4839 19.0578C21.4839 18.5951 21.093 18.2114 20.6217 18.2114H20.5067C20.0227 18.2114 19.6445 18.5951 19.6445 19.0578C19.6445 19.5318 20.0227 19.9042 20.5067 19.9042Z" fill="white"/>
</svg>
