<svg width="30" height="30" viewBox="0 0 30 30" fill="none" xmlns="http://www.w3.org/2000/svg">
<path d="M11.1912 6.15595C10.3048 5.94802 9.38222 5.94802 8.49578 6.15595C7.33479 6.42828 6.42828 7.33479 6.15595 8.49578C5.94802 9.38222 5.94802 10.3048 6.15595 11.1912C6.42828 12.3522 7.33479 13.2587 8.49578 13.531C9.38222 13.739 10.3048 13.739 11.1912 13.531C12.3522 13.2587 13.2587 12.3522 13.531 11.1912C13.739 10.3048 13.739 9.38222 13.531 8.49578C13.2587 7.33479 12.3522 6.42828 11.1912 6.15595Z" fill="url(#paint0_linear_679_62050)"/>
<path d="M11.1912 16.469C10.3048 16.261 9.38222 16.261 8.49578 16.469C7.33479 16.7413 6.42828 17.6478 6.15595 18.8088C5.94802 19.6952 5.94802 20.6178 6.15595 21.5042C6.42828 22.6652 7.33479 23.5717 8.49578 23.8441C9.38222 24.052 10.3048 24.052 11.1912 23.8441C12.3522 23.5717 13.2587 22.6652 13.531 21.5042C13.739 20.6178 13.739 19.6952 13.531 18.8088C13.2587 17.6478 12.3522 16.7413 11.1912 16.469Z" fill="url(#paint1_linear_679_62050)"/>
<path d="M21.5042 6.15595C20.6178 5.94802 19.6952 5.94802 18.8088 6.15595C17.6478 6.42828 16.7413 7.33479 16.469 8.49578C16.261 9.38222 16.261 10.3048 16.469 11.1912C16.7413 12.3522 17.6478 13.2587 18.8088 13.531C19.6952 13.739 20.6178 13.739 21.5042 13.531C22.6652 13.2587 23.5717 12.3522 23.8441 11.1912C24.052 10.3048 24.052 9.38222 23.8441 8.49578C23.5717 7.33479 22.6652 6.42828 21.5042 6.15595Z" fill="url(#paint2_linear_679_62050)"/>
<path d="M21.5042 16.469C20.6178 16.261 19.6952 16.261 18.8088 16.469C17.6478 16.7413 16.7413 17.6478 16.469 18.8088C16.261 19.6952 16.261 20.6178 16.469 21.5042C16.7413 22.6652 17.6478 23.5717 18.8088 23.8441C19.6952 24.052 20.6178 24.052 21.5042 23.8441C22.6652 23.5717 23.5717 22.6652 23.8441 21.5042C24.052 20.6178 24.052 19.6952 23.8441 18.8088C23.5717 17.6478 22.6652 16.7413 21.5042 16.469Z" fill="url(#paint3_linear_679_62050)"/>
<defs>
<linearGradient id="paint0_linear_679_62050" x1="15" y1="6" x2="15" y2="24" gradientUnits="userSpaceOnUse">
<stop stop-color="#3994FF"/>
<stop offset="1" stop-color="#0075FF"/>
</linearGradient>
<linearGradient id="paint1_linear_679_62050" x1="15" y1="16.313" x2="15" y2="34.3131" gradientUnits="userSpaceOnUse">
<stop stop-color="#3994FF"/>
<stop offset="1" stop-color="#0075FF"/>
</linearGradient>
<linearGradient id="paint2_linear_679_62050" x1="25.313" y1="6" x2="25.313" y2="24" gradientUnits="userSpaceOnUse">
<stop stop-color="#3994FF"/>
<stop offset="1" stop-color="#0075FF"/>
</linearGradient>
<linearGradient id="paint3_linear_679_62050" x1="25.313" y1="16.313" x2="25.313" y2="34.3131" gradientUnits="userSpaceOnUse">
<stop stop-color="#3994FF"/>
<stop offset="1" stop-color="#0075FF"/>
</linearGradient>
</defs>
</svg>
