<svg width="33" height="33" viewBox="0 0 33 33" fill="none" xmlns="http://www.w3.org/2000/svg">
<path d="M23.7336 9.65735H9.73364C9.18136 9.65735 8.73364 10.1051 8.73364 10.6573C8.73364 11.2096 9.18136 11.6573 9.73364 11.6573H23.7336C24.2859 11.6573 24.7336 11.2096 24.7336 10.6573C24.7336 10.1051 24.2859 9.65735 23.7336 9.65735Z" fill="#19232E"/>
<path d="M23.7336 15.6573H13.7336C13.1814 15.6573 12.7336 16.1051 12.7336 16.6573C12.7336 17.2096 13.1814 17.6573 13.7336 17.6573H23.7336C24.2859 17.6573 24.7336 17.2096 24.7336 16.6573C24.7336 16.1051 24.2859 15.6573 23.7336 15.6573Z" fill="#19232E"/>
<path d="M23.7336 21.6573H9.73364C9.18136 21.6573 8.73364 22.1051 8.73364 22.6573C8.73364 23.2096 9.18136 23.6573 9.73364 23.6573H23.7336C24.2859 23.6573 24.7336 23.2096 24.7336 22.6573C24.7336 22.1051 24.2859 21.6573 23.7336 21.6573Z" fill="#19232E"/>
</svg>
