<svg width="21" height="20" viewBox="0 0 21 20" fill="none" xmlns="http://www.w3.org/2000/svg">
<path d="M9.7789 3.8755C9.90788 4.10117 9.88598 4.38272 9.72367 4.58575C9.04259 5.43767 8.63935 6.50414 8.63935 7.66185C8.63935 10.423 10.948 12.6921 13.8345 12.6921C14.6274 12.6921 15.3767 12.5206 16.0467 12.2148C16.2822 12.1073 16.5593 12.1538 16.7468 12.3322C16.9343 12.5107 16.9944 12.7852 16.8987 13.0257C15.8541 15.6508 13.239 17.4998 10.1914 17.4998C6.23697 17.4998 3 14.3802 3 10.4939C3 6.95904 5.67972 4.05712 9.13892 3.56255C9.39624 3.52577 9.64993 3.64982 9.7789 3.8755Z" fill="white"/>
</svg>
