<svg width="40" height="40" viewBox="0 0 40 40" fill="none" xmlns="http://www.w3.org/2000/svg">
<g clip-path="url(#clip0_679_61941)">
<g clip-path="url(#clip1_679_61941)">
<path d="M27.0375 6.45921L33.9959 5.99978L33.5361 12.9585L27.0375 18.6441L21.706 12.551L27.0375 6.45921ZM8.17525 33.9957L7.0878 32.9079L6 31.8205L9.2627 28.5567L10.3509 29.6449L11.4383 30.7327L8.17525 33.9957ZM15.7895 32.9079L11.4394 28.5571L7.08815 24.2059L9.2627 22.0303L13.6139 26.3815L17.9651 30.7323L15.7895 32.9079ZM16.9123 27.5039L12.4914 23.083L14.4733 20.8123L19.5168 25.226L16.9123 27.5039ZM14.907 19.1479L14.9064 19.1469L14.9053 19.1462L7.83458 12.959L7.37034 5.99609L14.3332 6.46033L28.8777 23.0837L24.4568 27.5046L14.907 19.1479ZM25.5794 32.9083L23.4034 30.7327L27.7546 26.3818L32.1062 22.0303L34.2814 24.2059L29.9299 28.5571L25.5794 32.9083ZM33.1936 33.9961L29.9299 30.733L32.1058 28.5564L35.3689 31.8201L34.2811 32.9076L33.1936 33.9961Z" fill="#19232E"/>
</g>
</g>
<defs>
<clipPath id="clip0_679_61941">
<rect width="40" height="40" fill="white"/>
</clipPath>
<clipPath id="clip1_679_61941">
<rect width="40" height="40" fill="white"/>
</clipPath>
</defs>
</svg>
