<svg width="12" height="12" viewBox="0 0 12 12" fill="none" xmlns="http://www.w3.org/2000/svg">
<path d="M11.486 4.49178L10.7135 3.71923C10.8134 3.65468 10.9057 3.5805 10.9888 3.49706C11.6794 2.80645 11.671 1.69333 10.9888 1.01118C10.3255 0.347831 9.16631 0.347831 8.50295 1.01118C8.41987 1.09427 8.34534 1.18664 8.28079 1.28655L7.50824 0.514003C6.82258 -0.171662 5.707 -0.171006 5.02203 0.514003L3.64072 1.89532C3.44956 2.08647 3.53745 2.41505 3.80005 2.48381C3.98787 2.53324 4.14821 2.62322 4.27627 2.75128C4.6876 3.16263 4.6876 3.83182 4.27627 4.24313C3.86492 4.65443 3.19608 4.65446 2.78476 4.24313C2.65704 4.11506 2.56672 3.9547 2.51693 3.7662C2.44716 3.50344 2.11836 3.41618 1.92844 3.60755L0.513985 5.022C-0.171328 5.70734 -0.171328 6.8229 0.513985 7.50821L1.28592 8.28015C1.18704 8.34435 1.09535 8.41853 1.01124 8.50264C0.326227 9.18796 0.326227 10.3035 1.01124 10.9889C1.6969 11.6745 2.81248 11.6739 3.49744 10.9889C3.58156 10.9047 3.65574 10.813 3.71994 10.7142L4.49181 11.486C5.17714 12.1713 6.2927 12.1713 6.97801 11.486L8.39247 10.0716C8.58407 9.87997 8.49569 9.5526 8.23382 9.48308C8.04531 9.4333 7.88498 9.34297 7.75689 9.21526C7.34554 8.80391 7.34554 8.13507 7.75689 7.72374C8.16789 7.31274 8.83708 7.31206 9.24874 7.72374C9.3768 7.85181 9.46678 8.01217 9.51621 8.19997C9.58514 8.46306 9.91324 8.54928 10.1047 8.3593L11.486 6.97798C12.1713 6.29267 12.1713 5.17711 11.486 4.49178Z" fill="#F1F1F1"/>
</svg>
