<svg width="30" height="30" viewBox="0 0 30 30" fill="none" xmlns="http://www.w3.org/2000/svg">
<rect width="30" height="30" rx="12" fill="#0075FF"/>
<path d="M21.4003 13.2404L20.499 12.3391C20.6156 12.2638 20.7234 12.1772 20.8203 12.0799C21.626 11.2742 21.6162 9.97555 20.8203 9.17971C20.0464 8.4058 18.694 8.4058 17.9201 9.17971C17.8232 9.27665 17.7362 9.38441 17.6609 9.50097L16.7596 8.59967C15.9597 7.79973 14.6582 7.80049 13.859 8.59967L12.2475 10.2112C12.0245 10.4342 12.127 10.8175 12.4334 10.8978C12.6525 10.9554 12.8396 11.0604 12.989 11.2098C13.4689 11.6897 13.4689 12.4705 12.989 12.9503C12.5091 13.4302 11.7288 13.4302 11.2489 12.9503C11.0999 12.8009 10.9945 12.6138 10.9364 12.3939C10.855 12.0873 10.4714 11.9855 10.2498 12.2088L8.59965 13.859C7.80012 14.6586 7.80012 15.96 8.59965 16.7596L9.50025 17.6602C9.38488 17.7351 9.27791 17.8216 9.17978 17.9197C8.3806 18.7193 8.3806 20.0208 9.17978 20.8203C9.97972 21.6202 11.2812 21.6195 12.0804 20.8203C12.1785 20.7222 12.265 20.6152 12.3399 20.4998L13.2404 21.4004C14.04 22.1999 15.3415 22.1999 16.141 21.4004L17.7912 19.7502C18.0147 19.5266 17.9116 19.1447 17.6061 19.0636C17.3862 19.0055 17.1991 18.9001 17.0497 18.7511C16.5698 18.2712 16.5698 17.4909 17.0497 17.011C17.5292 16.5315 18.3099 16.5307 18.7902 17.011C18.9396 17.1604 19.0446 17.3475 19.1022 17.5666C19.1827 17.8736 19.5654 17.9742 19.7888 17.7525L21.4003 16.141C22.1999 15.3414 22.1999 14.04 21.4003 13.2404Z" fill="white"/>
</svg>
