<svg width="26" height="26" viewBox="0 0 26 26" fill="none" xmlns="http://www.w3.org/2000/svg">
<g clip-path="url(#clip0_679_61796)">
<path d="M15.6 0H10.4C4.65624 0 0 4.65624 0 10.4V15.6C0 21.3438 4.65624 26 10.4 26H15.6C21.3438 26 26 21.3438 26 15.6V10.4C26 4.65624 21.3438 0 15.6 0Z" fill="#19232E"/>
<path d="M18.5469 11.475L17.7658 10.6939C17.8669 10.6286 17.9603 10.5536 18.0443 10.4693C18.7425 9.77099 18.7341 8.64549 18.0443 7.95577C17.3736 7.28504 16.2015 7.28504 15.5308 7.95577C15.4468 8.03978 15.3714 8.13317 15.3061 8.23419L14.525 7.45306C13.8318 6.75978 12.7038 6.76044 12.0111 7.45306L10.6145 8.84972C10.4212 9.04299 10.5101 9.37518 10.7756 9.44478C10.9655 9.4947 11.1277 9.5857 11.2571 9.71518C11.6731 10.1311 11.6731 10.8078 11.2571 11.2236C10.8412 11.6395 10.165 11.6395 9.74906 11.2236C9.61993 11.0941 9.52858 10.932 9.47823 10.7414C9.40768 10.4757 9.07523 10.3874 8.88317 10.581L7.45304 12.0111C6.76012 12.7041 6.76012 13.832 7.45304 14.525L8.23356 15.3055C8.13358 15.3704 8.04087 15.4454 7.95582 15.5304C7.2632 16.2234 7.2632 17.3514 7.95582 18.0443C8.6491 18.7375 9.77705 18.7369 10.4697 18.0443C10.5547 17.9593 10.6297 17.8665 10.6946 17.7665L11.475 18.547C12.168 19.2399 13.296 19.2399 13.9889 18.547L15.4191 17.1169C15.6128 16.9231 15.5234 16.5921 15.2586 16.5218C15.0681 16.4715 14.9059 16.3801 14.7764 16.251C14.3605 15.8351 14.3605 15.1588 14.7764 14.7429C15.192 14.3273 15.8686 14.3266 16.2849 14.7429C16.4143 14.8724 16.5053 15.0345 16.5553 15.2244C16.625 15.4905 16.9567 15.5777 17.1503 15.3855L18.5469 13.9889C19.2399 13.2959 19.2399 12.168 18.5469 11.475Z" fill="white"/>
</g>
<defs>
<clipPath id="clip0_679_61796">
<rect width="26" height="26" fill="white"/>
</clipPath>
</defs>
</svg>
