<svg width="183" height="33" viewBox="0 0 183 33" fill="none" xmlns="http://www.w3.org/2000/svg">
<g clip-path="url(#clip0_1357_1115)">
<path fill-rule="evenodd" clip-rule="evenodd" d="M0 1.86731V10.3077H4.70571V32.3424H15.5363V23.4538L19.7192 26.6657V32.3424H28.0849V24.7983L24.4996 21.213L28.0849 18.5987V7.99221L24.2008 1.86731H0ZM14.9388 15.0881V9.93425H19.7192V15.0881H14.9388Z" fill="#D5D5D5"/>
<path d="M30.1016 10.3818V1.94141H45.3391L45.115 23.9761H52.1363L51.9122 1.94141H61.8465L61.6224 28.383L57.6636 32.4912H40.6334L35.3301 29.2794V10.3818H30.1016Z" fill="#D5D5D5"/>
<path d="M63.9375 9.63488V1.94141H80.3702L83.7314 10.9794H84.9265L89.184 1.94141H100.089L100.612 32.4165H90.9767V20.9883H90.1551L86.8685 32.1177H82.5363L79.0257 20.9883H78.3534V32.4165H67.8963V9.63488H63.9375Z" fill="#D5D5D5"/>
<path fill-rule="evenodd" clip-rule="evenodd" d="M102.777 10.009V1.94204L129.219 0L129.817 11.2041L125.708 15.3869L131.385 18.8976V28.0849L125.036 32.5665H106.587V10.009H102.777ZM115.027 8.73918V12.9967H116.222L120.779 10.009V8.73918H115.027ZM115.027 24.2008V18.5988H116.222L120.779 21.4371V24.2008H115.027Z" fill="#D5D5D5"/>
<path d="M132.656 14.4114V5H147.595V25.989H156.558V35.1763H138.258L137.437 14.4114H132.656Z" fill="#D5D5D5"/>
<path d="M157.531 10.3821V2.01642L183.002 0.970703V9.93397H171.723V14.9385H178.371V20.2417H171.723V24.3499H179.491L175.532 27.7858L176.205 29.1303C178.147 29.0805 182.091 29.0108 182.33 29.1303C182.569 29.2498 182.429 31.3711 182.33 32.4168H161.789V10.3821H157.531Z" fill="#D5D5D5"/>
</g>
<defs>
<clipPath id="clip0_1357_1115">
<rect width="183" height="33" fill="white"/>
</clipPath>
</defs>
</svg>
