<svg width="26" height="26" viewBox="0 0 26 26" fill="none" xmlns="http://www.w3.org/2000/svg">
<g clip-path="url(#clip0_679_61799)">
<path d="M15.5046 0H10.3046C4.56081 0 -0.0954285 4.65624 -0.0954285 10.4V15.6C-0.0954285 21.3438 4.56081 26 10.3046 26H15.5046C21.2483 26 25.9046 21.3438 25.9046 15.6V10.4C25.9046 4.65624 21.2483 0 15.5046 0Z" fill="#19232E"/>
<path d="M12.9046 6.93335C9.32056 6.93335 6.40457 9.84925 6.40457 13.4333C6.40457 17.0174 9.32056 19.9333 12.9046 19.9333C16.4887 19.9333 19.4046 17.0174 19.4046 13.4333C19.4046 9.84925 16.4887 6.93335 12.9046 6.93335ZM13.2092 8.78542L15.339 8.07085C16.0699 8.4038 16.7214 8.88058 17.2561 9.46662L17.252 11.7326L15.3624 12.1902L13.2092 10.6258V8.78542ZM10.4559 8.07725L12.5999 8.78672V10.6258L10.4467 12.1902L8.57021 11.7329L8.56598 9.59445C8.56598 9.55502 8.55411 9.51853 8.53451 9.48733C9.06905 8.89566 9.72243 8.4139 10.4559 8.07725ZM7.77215 16.3199C7.39072 15.6444 7.13825 14.8872 7.04982 14.0808L8.38326 12.3139L10.2613 12.7716L11.0824 15.2985L9.9066 17.0233L7.77215 16.3199ZM14.036 19.2173C13.6696 19.2889 13.2918 19.326 12.9047 19.326C12.476 19.3261 12.0581 19.2773 11.6554 19.1897L10.3973 17.391L11.5762 15.6677H14.231L15.2993 17.3873L14.036 19.2173ZM15.7927 17.0214L14.7264 15.2994L15.5478 12.7716L17.439 12.3137L18.7627 14.0545C18.6786 14.8545 18.4333 15.6069 18.0605 16.2793L15.7927 17.0214Z" fill="#F1F1F1"/>
</g>
<defs>
<clipPath id="clip0_679_61799">
<rect width="26" height="26" fill="white"/>
</clipPath>
</defs>
</svg>
