<svg width="12" height="12" viewBox="0 0 12 12" fill="none" xmlns="http://www.w3.org/2000/svg">
<g clip-path="url(#clip0_1457_2199)">
<path d="M6 0C2.69171 0 0 2.69162 0 6C0 9.30838 2.69171 12 6 12C9.30838 12 12 9.30838 12 6C12 2.69162 9.30838 0 6 0ZM6.28124 1.70962L8.24714 1.05C8.92181 1.35733 9.52324 1.79743 10.0168 2.33838L10.013 4.4301L8.26876 4.85248L6.28124 3.40838V1.70962ZM3.73971 1.0559L5.71876 1.71076V3.40838L3.73124 4.85248L1.99905 4.43029L1.99514 2.45638C1.99514 2.42 1.98419 2.38629 1.9661 2.35752C2.45952 1.81133 3.06267 1.36667 3.73971 1.0559ZM1.26238 8.66448C0.910286 8.04095 0.677238 7.342 0.595619 6.59771L1.82648 4.96667L3.5601 5.38924L4.318 7.72171L3.23267 9.31381L1.26238 8.66448ZM7.04438 11.339C6.70619 11.4051 6.35743 11.4393 6.0001 11.4393C5.60438 11.4394 5.21867 11.3944 4.84686 11.3136L3.68562 9.65324L4.77381 8.06248H7.22438L8.21048 9.64981L7.04438 11.339ZM8.666 9.3121L7.68171 7.72248L8.43991 5.38914L10.1856 4.96648L11.4075 6.57333C11.3298 7.31181 11.1034 8.00629 10.7593 8.62705L8.666 9.3121Z" fill="#F1F1F1"/>
</g>
<defs>
<clipPath id="clip0_1457_2199">
<rect width="12" height="12" fill="white"/>
</clipPath>
</defs>
</svg>
