<svg width="30" height="30" viewBox="0 0 30 30" fill="none" xmlns="http://www.w3.org/2000/svg">
<rect width="30" height="30" rx="12" fill="#0075FF"/>
<g clip-path="url(#clip0_1623_3902)">
<path d="M15 8C10.8646 8 7.5 11.3645 7.5 15.5C7.5 19.6355 10.8646 23 15 23C19.1355 23 22.5 19.6355 22.5 15.5C22.5 11.3645 19.1355 8 15 8ZM15.3515 10.137L17.8089 9.3125C18.6523 9.69667 19.404 10.2468 20.021 10.923L20.0163 13.5376L17.836 14.0656L15.3515 12.2605V10.137ZM12.1746 9.31988L14.6485 10.1385V12.2605L12.164 14.0656L9.99881 13.5379L9.99393 11.0705C9.99393 11.025 9.98024 10.9829 9.95762 10.9469C10.5744 10.2642 11.3283 9.70833 12.1746 9.31988ZM9.07798 18.8306C8.63786 18.0512 8.34655 17.1775 8.24452 16.2471L9.7831 14.2083L11.9501 14.7365L12.8975 17.6521L11.5408 19.6423L9.07798 18.8306ZM16.3055 22.1738C15.8827 22.2564 15.4468 22.2992 15.0001 22.2992C14.5055 22.2993 14.0233 22.243 13.5586 22.142L12.107 20.0665L13.4673 18.0781H16.5305L17.7631 20.0623L16.3055 22.1738ZM18.3325 19.6401L17.1021 17.6531L18.0499 14.7364L20.232 14.2081L21.7594 16.2167C21.6623 17.1398 21.3793 18.0079 20.9492 18.7838L18.3325 19.6401Z" fill="#F1F1F1"/>
</g>
<defs>
<clipPath id="clip0_1623_3902">
<rect width="15" height="15" fill="white" transform="translate(7.5 8)"/>
</clipPath>
</defs>
</svg>
