<svg width="21" height="20" viewBox="0 0 21 20" fill="none" xmlns="http://www.w3.org/2000/svg">
<path d="M10.5 5.40332C7.96127 5.40332 5.90323 7.46136 5.90323 10.0001C5.90323 12.5388 7.96127 14.5969 10.5 14.5969C13.0387 14.5969 15.0968 12.5388 15.0968 10.0001C15.0968 7.46136 13.0387 5.40332 10.5 5.40332Z" fill="#19232E"/>
<path fill-rule="evenodd" clip-rule="evenodd" d="M10.5 2.5C10.9009 2.5 11.2258 2.82495 11.2258 3.22581V3.28146C11.2258 3.68231 10.9009 4.00727 10.5 4.00727C10.0991 4.00727 9.77419 3.68231 9.77419 3.28146V3.22581C9.77419 2.82495 10.0991 2.5 10.5 2.5ZM5.14805 4.64807C5.43149 4.36462 5.89105 4.36462 6.17449 4.64807L6.26249 4.73606C6.54594 5.01951 6.54594 5.47906 6.26249 5.76251C5.97905 6.04595 5.51949 6.04595 5.23605 5.76251L5.14805 5.67451C4.8646 5.39107 4.8646 4.93151 5.14805 4.64807ZM15.852 4.64807C16.1354 4.93151 16.1354 5.39107 15.852 5.67451L15.764 5.76251C15.4805 6.04596 15.021 6.04596 14.7375 5.76251C14.4541 5.47906 14.4541 5.01951 14.7375 4.73606L14.8255 4.64807C15.109 4.36462 15.5685 4.36462 15.852 4.64807ZM3 10C3 9.59915 3.32495 9.27419 3.72581 9.27419H3.78146C4.18231 9.27419 4.50727 9.59915 4.50727 10C4.50727 10.4009 4.18231 10.7258 3.78146 10.7258H3.72581C3.32495 10.7258 3 10.4009 3 10ZM16.4928 10C16.4928 9.59915 16.8177 9.27419 17.2186 9.27419H17.2742C17.675 9.27419 18 9.59915 18 10C18 10.4009 17.675 10.7258 17.2742 10.7258H17.2186C16.8177 10.7258 16.4928 10.4009 16.4928 10ZM14.7375 14.2376C15.0209 13.9541 15.4804 13.9541 15.7639 14.2375L15.8519 14.3254C16.1354 14.6089 16.1354 15.0684 15.852 15.3519C15.5686 15.6354 15.109 15.6354 14.8255 15.352L14.7376 15.264C14.4541 14.9806 14.4541 14.5211 14.7375 14.2376ZM6.26244 14.2375C6.54591 14.5209 6.54597 14.9804 6.26255 15.2639L6.17458 15.3519C5.89117 15.6354 5.43161 15.6355 5.14813 15.352C4.86466 15.0686 4.8646 14.6091 5.14802 14.3256L5.23599 14.2376C5.5194 13.9541 5.97896 13.9541 6.26244 14.2375ZM10.5 15.9928C10.9009 15.9928 11.2258 16.3177 11.2258 16.7186V16.7742C11.2258 17.175 10.9009 17.5 10.5 17.5C10.0991 17.5 9.7742 17.175 9.7742 16.7742V16.7186C9.7742 16.3177 10.0991 15.9928 10.5 15.9928Z" fill="#19232E"/>
</svg>
