<svg width="40" height="40" viewBox="0 0 40 40" fill="none" xmlns="http://www.w3.org/2000/svg">
<path d="M16.7249 6.02615C17.7962 5.98743 18.8683 5.9733 19.9402 5.98385C22.2943 5.99358 27.0397 5.82525 28.7287 7.54883C29.7677 8.60913 29.7005 10.0666 29.6855 11.4372C30.5507 11.3875 31.6107 11.2909 32.4055 11.703C32.9685 11.9951 33.3475 12.51 33.5355 13.1096C34.0665 14.8047 33.4117 19.0312 32.5802 20.6305C31.82 22.0925 30.582 23.4091 28.9855 23.9338C28.361 24.1391 27.703 24.1996 27.0762 24.3975C26.679 24.7943 26.337 25.2576 25.9622 25.6771C24.9027 26.8633 23.7036 27.4726 22.2038 27.9311C21.2203 28.2751 20.0391 28.3603 19.0054 28.2698C15.8123 27.9906 14.287 26.7326 12.312 24.3787C10.4981 23.8741 9.66413 23.993 8.19573 22.5455C6.04228 20.4225 5.68823 17.6289 5.66886 14.7211C5.66231 13.7363 5.69831 12.7963 6.43796 12.0548C7.26456 11.2261 8.60641 11.4009 9.68151 11.4052C9.68516 10.0926 9.60946 8.7354 10.5412 7.68105C11.9837 6.04883 14.7239 6.14135 16.7249 6.02615ZM10.4756 21.5193L11.1698 21.9032C10.4229 19.1986 9.84901 16.4665 9.76021 13.653C9.42681 13.654 9.09118 13.6465 8.75811 13.6572C8.50723 13.6566 8.20456 13.6221 7.97801 13.741C7.74676 14.0145 7.82398 14.5974 7.85191 14.931C8.04776 17.2703 8.14528 19.5969 10.0907 21.234C10.214 21.3378 10.3369 21.4365 10.4756 21.5193ZM19.5842 11.537C18.8218 12.2656 18.3174 13.7185 17.4124 14.1574C16.9231 14.3946 14.7431 14.7985 14.7301 15.3771C14.7146 16.0661 16.0361 17.0543 16.3208 17.7344C16.6187 18.446 16.411 19.5483 16.5282 20.3285C16.5597 20.5379 16.6047 20.7693 16.7568 20.9257C16.8463 21.0177 17.0059 21.0448 17.1299 21.0453C18.0446 21.0492 18.8997 20.2901 19.8156 20.3279C20.2714 20.4466 22.113 21.2295 22.4474 21.0293C22.6719 20.8949 22.7777 20.6884 22.8369 20.4411C23.0441 19.5763 22.6838 18.354 23.1459 17.5955C23.4147 17.1541 24.8735 15.6807 24.6014 15.2215C24.2417 14.6143 22.3772 14.4377 21.7374 14.0116C21.0729 13.569 20.7069 12.4937 20.1638 11.8894C20.0436 11.7557 19.8943 11.5999 19.715 11.5562C19.6728 11.5459 19.6276 11.5389 19.5842 11.537ZM29.614 13.6601C29.4625 16.4457 29.0512 19.1574 28.218 21.8258C28.4435 21.7262 28.721 21.632 28.9097 21.4737C30.2762 20.4772 30.9542 19.1334 31.212 17.4944C31.3275 16.7602 31.6795 14.3685 31.4077 13.7781C31.1937 13.597 30.861 13.6426 30.5967 13.6549C30.2697 13.6626 29.9407 13.6778 29.614 13.6601Z" fill="#1B242E"/>
<path d="M17.0601 28.2679C19.129 28.6224 20.364 28.5554 22.4067 28.2456C22.4114 28.5316 22.4132 28.8206 22.4436 29.1054C22.596 30.5279 24.8305 30.0054 25.738 30.7501C26.0025 30.9671 26.1327 31.2726 26.1605 31.6079C26.1875 31.9344 26.1065 32.2406 25.889 32.4924C25.2022 33.2866 23.6626 33.3136 22.6894 33.3836C21.4895 33.3989 20.288 33.3906 19.0879 33.3926C17.6568 33.3951 16.1583 33.4801 14.7558 33.1481C14.335 33.0484 13.9607 32.8984 13.6292 32.6149C13.3914 32.4116 13.2274 32.1579 13.2057 31.8381C13.0734 29.8921 15.7065 30.5621 16.6447 29.7814C17.1602 29.3524 16.7169 28.6511 17.0601 28.2679Z" fill="#1B242E"/>
</svg>
